<svg width="116" height="114" viewBox="0 0 116 114" fill="none" xmlns="http://www.w3.org/2000/svg">
<g clip-path="url(#clip0_13_42)">
<path d="M53.6953 0.135376C51.4478 0.324776 50.2515 0.487122 50.2697 0.595345C50.2787 0.658478 49.7622 0.75769 48.9284 0.856895C48.1762 0.938072 47.2065 1.08237 46.7806 1.17256C44.5694 1.65057 42.6662 2.11956 41.325 2.53443C40.5003 2.78696 39.4219 3.11165 38.9325 3.26497C34.7184 4.50959 29.5256 7.00785 25.4022 9.74962C23.2815 11.1656 20.1006 13.6188 18.3969 15.161C16.4484 16.9287 13.5212 19.8328 12.4247 21.1045C9.85091 24.0808 7.60341 27.2825 6.15341 30.0784C5.4556 31.4132 3.73373 35.1561 3.21716 36.4368C2.24748 38.881 1.11466 42.9124 0.598101 45.7264C0.144976 48.2246 0.0452881 49.2528 0.0452881 51.5887C0.0452881 53.8074 0.108726 54.5109 0.289976 54.4567C0.462163 54.3936 0.625288 53.8074 0.996851 51.9495C1.18716 50.9844 1.38654 49.9833 1.43185 49.7398C1.50435 49.3881 1.51341 49.5143 1.4681 50.326C1.43185 50.8942 1.40466 52.3012 1.40466 53.4556C1.40466 55.7555 1.45904 55.999 1.81248 55.4037C1.96654 55.1602 2.07529 54.6912 2.22935 53.7082L2.43779 52.3553L2.38341 54.0779C2.35623 55.2414 2.37435 56.0711 2.44685 56.6303C2.56466 57.451 2.56466 57.4601 2.68248 57.1805C2.7731 56.973 2.9906 55.1332 2.9906 54.601C2.9906 54.583 3.05404 54.565 3.12654 54.565C3.3531 54.565 3.70654 53.1941 4.26841 50.1366C4.55841 48.5222 4.92091 46.6734 5.07498 46.033C5.39216 44.7162 5.79091 43.3454 5.84529 43.3995C5.87248 43.4175 5.82716 43.7512 5.75466 44.139C5.59154 44.9688 5.6006 44.9146 5.70935 44.9146C5.76373 44.9146 5.79998 44.8425 5.79998 44.7523C5.80904 44.6441 5.84529 44.6711 5.94498 44.8515C6.01748 44.9868 6.11716 45.077 6.17154 45.0499C6.21685 45.0139 6.3981 44.7162 6.57029 44.3915C6.75154 44.0308 6.87841 43.8594 6.88748 43.9677C6.88748 44.0759 6.92373 44.1931 6.96904 44.2382C7.01435 44.2923 7.01435 44.7703 6.96904 45.3205C6.86935 46.7004 7.00529 47.8007 7.2681 47.8007C7.38591 47.8007 7.64873 47.1604 8.24685 45.3836C8.85404 43.6249 8.89029 43.5438 8.97185 43.7873C9.01716 43.9135 9.10779 43.7963 9.33435 43.2822C10.014 41.7941 11.9172 38.1143 12.6422 36.9058C13.5575 35.3635 14.0469 34.6601 16.5119 31.3772C19.1581 27.8597 20.309 26.4708 22.6019 24.0808C23.7347 22.8993 23.925 22.773 23.2 23.6749C21.904 25.3074 21.2606 26.5159 21.6956 26.5159C21.8587 26.5159 22.8194 25.7764 24.6047 24.2702C29.9787 19.7246 33.6219 17.2534 38.2619 15.0257C43.3278 12.5816 48.4844 11.1656 54.5562 10.5343C56.0787 10.381 61.7428 10.381 63.2562 10.5343C66.2015 10.8409 69.2556 11.4091 71.6481 12.0855C87.2447 16.4868 99.4156 28.0942 104.436 43.3544C105.515 46.6463 106.212 50.0825 106.593 53.9787C106.738 55.521 106.738 60.1297 106.593 61.7351C106.022 67.9221 104.373 73.7033 101.545 79.4123C97.8025 86.9882 92.1022 93.4639 84.9609 98.262C76.9587 103.628 68.005 106.37 57.5469 106.659C49.2365 106.893 41.3703 105.089 33.35 101.103C32.0722 100.472 32.3894 100.76 33.8031 101.518C39.7028 104.683 46.0465 106.559 53.1969 107.254C54.8281 107.407 60.619 107.407 62.2594 107.254C74.5572 106.063 85.0153 101.238 93.7425 92.7153C94.6759 91.7953 95.8631 90.5778 96.3615 90.0096C97.6031 88.6026 97.6847 88.5305 97.005 89.4684C96.8419 89.6939 96.715 89.9465 96.724 90.0276C96.7512 90.2351 94.685 92.5349 93.099 94.0772C89.5737 97.4863 85.7947 100.273 81.6531 102.483C79.4056 103.682 75.264 105.225 72.0378 106.054C68.1228 107.064 65.1594 107.47 60.0844 107.687C58.8156 107.741 57.4381 107.822 57.0303 107.876C55.1906 108.093 49.9525 107.506 46.4906 106.686C38.4703 104.783 31.0028 101.031 24.514 95.6374C23.4356 94.7355 20.8619 92.2553 19.2034 90.5056C17.8712 89.1077 16.3669 87.2317 15.1344 85.4279C14.8172 84.968 14.5453 84.6162 14.5181 84.6433C14.3822 84.7786 16.7384 87.9623 18.2247 89.6578C18.6415 90.1359 19.3031 90.8934 19.6928 91.3444C20.6897 92.4898 23.5897 95.2947 24.8765 96.377C30.0965 100.706 35.8512 103.872 42.2312 105.919C44.0981 106.523 46.9256 107.227 48.7109 107.552C49.4087 107.669 50.1881 107.813 50.4328 107.858C50.7047 107.903 50.7862 107.939 50.6412 107.948C50.1609 107.966 47.1431 107.407 45.3306 106.956C41.8415 106.099 38.3615 104.846 35.2078 103.304C27.4956 99.5336 21.2334 94.3838 16.24 87.6827C15.7144 86.9792 15.2703 86.42 15.2431 86.4471C15.1887 86.4922 15.8594 87.4392 16.8472 88.7018C21.3422 94.4469 26.9247 99.1639 33.214 102.519C41.2072 106.776 50.3422 108.886 59.7219 108.643C60.9453 108.616 62.2865 108.571 62.7125 108.544L63.4828 108.508L62.6853 108.634C61.2172 108.859 58.9697 108.977 56.4594 108.977C50.8406 108.967 46.6084 108.309 41.7781 106.695C37.3556 105.216 32.3259 102.69 28.5469 100.057C19.3665 93.6623 12.4247 84.7154 8.89029 74.7404C8.30123 73.0629 8.12904 73.1441 8.69091 74.8306C11.5094 83.3446 17.0737 91.5428 24.215 97.7208C24.6047 98.0545 24.9219 98.3522 24.9219 98.3702C24.9219 98.3972 24.6862 98.2259 24.4053 97.9824C21.2062 95.3128 18.4059 92.3726 15.9047 89.0626C13.8565 86.3569 12.4337 84.012 10.449 80.0887C9.67873 78.5735 8.98998 77.2748 8.91748 77.2026C8.80873 77.0944 8.7906 77.0944 8.7906 77.2477C8.7906 77.4642 8.96279 78.0324 9.27998 78.8621C9.40685 79.1958 9.49748 79.5115 9.47029 79.5566C9.31623 79.8001 12.189 84.9139 13.9653 87.5474C17.1644 92.2914 21.5053 96.8279 26.2359 100.381C27.559 101.364 30.0331 102.997 31.4922 103.845C32.9784 104.702 33.1597 104.837 32.1265 104.296C29.6615 103.024 26.2903 100.733 23.6984 98.5776C19.6294 95.2045 16.2128 91.4346 13.34 87.1416C12.2887 85.5903 11.2103 83.7865 11.2737 83.7234C11.3462 83.6512 10.7844 82.587 10.5578 82.3885C10.4581 82.2893 10.2315 81.8835 10.0684 81.4866C9.90529 81.0898 9.55185 80.3593 9.28904 79.8632C8.31935 78.0594 6.89654 74.1272 6.11716 71.1238C5.12029 67.2637 4.62185 63.9988 4.4406 60.0215C4.31373 57.3879 4.28654 57.1895 4.27748 58.8039C4.23216 62.7181 5.00248 67.859 6.29841 72.3414C7.79373 77.4912 10.1047 82.5148 13.0137 86.9161C13.485 87.6286 13.8475 88.2599 13.8203 88.305C13.7115 88.4673 14.9984 90.217 17.2187 92.9317C17.3728 93.1211 17.255 93.058 16.8562 92.7243C16.1856 92.1741 16.0678 92.2373 16.4847 92.9227L16.7656 93.3917L16.3487 92.9408C15.66 92.2102 13.8837 89.9735 12.9412 88.6567C10.014 84.5621 7.4856 79.773 5.82716 75.1734C5.57341 74.4789 5.31966 73.7844 5.26529 73.6401L5.1656 73.3696L5.20185 73.6852C5.21998 73.8566 5.49185 74.7134 5.79998 75.5792C8.58216 83.3265 13.0228 90.3343 18.85 96.1515C20.6987 97.9914 21.6865 98.8753 23.7437 100.517C25.9731 102.293 27.0606 103.087 28.9094 104.305C36.7303 109.473 45.4937 112.431 54.9369 113.098C56.8944 113.233 60.8819 113.206 62.9028 113.044C69.7087 112.503 76.4331 110.681 82.5503 107.723C87.7794 105.198 93.09 101.608 96.9415 98.0004C97.4581 97.5224 97.8931 97.1346 97.9112 97.1346C98.0653 97.1346 97.5759 97.7659 96.9869 98.3161C93.3709 101.752 88.0512 105.387 83.2572 107.687C75.6084 111.367 67.6969 113.197 58.9969 113.324C50.1609 113.441 41.7781 111.601 33.7669 107.777C25.6015 103.881 18.5328 98.1086 13.0228 90.8213C6.91466 82.7493 3.21716 73.7123 1.99373 63.8545C1.73091 61.708 1.53154 60.4273 1.44998 60.3822C1.1781 60.2199 1.30498 63.2052 1.67654 65.6854C3.08123 75.2004 6.89654 84.1833 12.7237 91.7232C18.4875 99.1819 26.1997 105.198 34.8906 109.022C44.9319 113.441 55.5531 114.857 66.7 113.27C73.234 112.341 80.3028 109.951 86.13 106.695C93.389 102.654 99.2525 97.5044 104.382 90.686C108.288 85.5001 111.46 79.0064 113.327 72.3775C114.731 67.381 115.347 62.8805 115.492 56.5491C115.502 55.8817 115.511 56.7746 115.492 58.5333C115.483 60.6708 115.42 62.2041 115.329 63.133C114.351 72.5398 111.568 80.6659 106.657 88.4673C106.113 89.3332 105.678 90.0547 105.705 90.0727C105.768 90.1449 106.367 89.3422 107.101 88.2058C111.55 81.2702 114.387 73.3876 115.492 64.9368C115.927 61.5998 116.082 56.5491 115.828 53.5278C115.284 46.8808 113.861 41.0004 111.469 35.4898C111.215 34.8946 110.88 34.0468 110.726 33.6048C109.33 29.4741 105.859 23.72 102.044 19.2105C100.712 17.6412 97.884 14.8183 96.3797 13.5827C93.7787 11.4362 90.6522 9.25358 88.8125 8.30658C85.0425 6.37652 83.529 5.67303 81.1094 4.73506C80.4387 4.47351 79.2334 3.99551 78.4359 3.67984C74.095 1.92114 69.1922 0.775726 63.6187 0.216553C61.5344 0.00911713 55.7887 -0.0359802 53.6953 0.135376ZM37.4734 4.66291C31.2656 7.11607 25.1847 10.7507 20.3906 14.8724C19.1037 15.9817 16.7565 18.2545 15.4969 19.6164C14.6722 20.5093 14.6903 20.4371 15.5784 19.3458C17.9437 16.4417 22.5384 12.5906 26.9609 9.81275C30.024 7.88269 34.2109 5.74519 36.7484 4.81623C37.564 4.51861 38.1622 4.39234 37.4734 4.66291ZM30.0965 9.86687C30.0331 9.93902 29.6162 10.2186 29.154 10.4892C25.6287 12.5816 21.3784 15.9637 18.714 18.7776C17.7444 19.8058 14.9803 22.4574 15.3519 22.0064C15.4878 21.8351 16.1494 21.1045 16.8109 20.383C20.3544 16.5409 24.4597 13.1859 29.0362 10.399C29.6344 10.0382 30.1419 9.7406 30.16 9.7406C30.1872 9.7406 30.1509 9.79472 30.0965 9.86687ZM10.4219 28.3648C10.4219 28.3829 10.2587 28.6715 10.0594 28.9961C9.59716 29.7447 8.81779 31.287 8.16529 32.748C7.88435 33.3703 7.56716 33.9656 7.46748 34.0738C7.11404 34.4526 5.10216 39.0613 4.53123 40.811C4.34091 41.4153 4.16873 41.74 4.16873 41.5145C4.16873 41.1718 5.43748 37.7085 6.20779 35.9317C7.1231 33.8213 8.60029 31.0525 10.0231 28.7436C10.2497 28.3829 10.4219 28.2115 10.4219 28.3648ZM6.4706 36.9509C5.72748 38.7186 4.49498 42.4074 4.05091 44.1931C3.7156 45.546 3.30779 47.7647 2.99966 49.8571C2.89998 50.5154 2.78216 51.1107 2.73685 51.1648C2.69154 51.2279 2.6281 51.3542 2.60091 51.4534C2.49216 51.8232 2.64623 50.5876 2.95435 48.6034C3.28966 46.3938 3.7156 44.5539 4.43154 42.1999C5.10216 39.9632 6.6881 35.8055 6.76966 36.049C6.78779 36.1031 6.65185 36.509 6.4706 36.9509ZM1.60404 49.1716C1.57685 49.2438 1.54966 49.2167 1.54966 49.1175C1.5406 49.0183 1.56779 48.9642 1.59498 49.0003C1.62216 49.0273 1.63123 49.1085 1.60404 49.1716ZM2.76404 52.3914C2.72779 52.6169 2.67341 52.7522 2.65529 52.689C2.6281 52.6259 2.63716 52.3373 2.68248 52.0577C2.72779 51.733 2.76404 51.6248 2.79123 51.7601C2.80935 51.8773 2.80029 52.1659 2.76404 52.3914ZM22.5294 97.7749C27.9306 102.492 34.229 106.072 41.0531 108.318C44.2612 109.373 47.9134 110.176 51.6834 110.663C52.9522 110.825 53.4687 110.925 54.5109 111.195C55.0275 111.33 53.7587 111.249 51.8737 111.024C39.6665 109.554 28.4381 104.106 20.0734 95.5923L18.9859 94.483L20.2184 95.6555C20.889 96.3048 21.9312 97.2518 22.5294 97.7749ZM51.3209 108.021C51.2575 108.039 51.1306 108.039 51.049 108.021C50.9584 107.993 51.0128 107.975 51.1578 107.975C51.3119 107.975 51.3753 107.993 51.3209 108.021Z" fill="white"/>
<path d="M104.119 92.2373C100.24 97.1436 95.7725 101.247 90.5796 104.665C83.3478 109.436 75.2459 112.494 66.8812 113.63C65.0687 113.883 64.815 113.928 64.96 113.973C65.1412 114.045 67.9596 113.648 69.7359 113.315C78.3362 111.664 86.3837 108.111 93.4796 102.808C96.6425 100.454 99.615 97.7028 102.207 94.7536C103.367 93.4278 104.708 91.7322 104.645 91.6691C104.627 91.642 104.382 91.9036 104.119 92.2373Z" fill="white"/>
</g>
<defs>
<clipPath id="clip0_13_42">
<rect width="116" height="114" fill="white"/>
</clipPath>
</defs>
</svg>
